<svg xmlns="http://www.w3.org/2000/svg" xmlns:xlink="http://www.w3.org/1999/xlink" id="Layer_1" x="0px" y="0px" viewBox="0 0 342 54.2" style="enable-background:new 0 0 342 54.2;" xml:space="preserve"> <style type="text/css"> .st0{fill:#FFFFFF;} </style> <g> <polygon class="st0" points="73.3,5.1 59.5,36.1 49.2,5.1 "></polygon> <polygon class="st0" points="20.9,49.8 5.3,5.2 19.2,5.1 28.4,33.1 "></polygon> <polygon class="st0" points="41,5.1 55.6,49.9 42.5,49.9 33.3,22.5 "></polygon> </g> <g> <path class="st0" d="M92,37.7l-5.4-20.3h2.2l4,15.6l0.5,2.4c0.6-2.4,1.6-5.8,2.9-10.1s2.1-7,2.4-7.9h2.1l4.7,15.7l0.6,2.2 c0.6-2.3,1.4-5.7,2.4-10c1.1-4.3,1.7-7,1.9-7.9h2.1l-5.2,20.3h-2.5l-5.1-17.5l-5.2,17.5C94.4,37.7,92,37.7,92,37.7z"></path> <path class="st0" d="M121.2,37.7V17.4h2.1v20.3C123.3,37.7,121.2,37.7,121.2,37.7z"></path> <path class="st0" d="M142.1,38c-1.4,0-2.7-0.2-3.9-0.7s-2.3-1.1-3.1-2c-0.9-0.9-1.6-1.9-2.1-3.2s-0.8-2.7-0.8-4.3 c0-2.1,0.4-4,1.3-5.7c0.8-1.6,2-2.9,3.5-3.8s3.2-1.3,5.2-1.3c2.5,0,4.6,0.7,6.1,2l-0.8,1.4c-1.5-1.1-3.2-1.7-5.2-1.7 c-1.6,0-3,0.4-4.2,1.1s-2.1,1.8-2.8,3.2c-0.6,1.4-1,2.9-1,4.7c0,2.6,0.7,4.6,2.1,6.2c1.4,1.5,3.3,2.3,5.7,2.3 c2.1,0,4.1-0.6,5.9-1.9l0.7,1.6C146.8,37.3,144.6,38,142.1,38z"></path> <path class="st0" d="M157.5,37.7V17.4h2.1v9.3l9.4-9.3h2.6l-9.8,9.7l10.5,10.5h-2.6l-10.1-10v10L157.5,37.7L157.5,37.7z"></path> <path class="st0" d="M184.1,37.7v-8.1l-6.9-12.2h2.3l5.7,10.3l5.8-10.3h2.2l-7,12.1v8.2H184.1z"></path> <path class="st0" d="M213.8,37.7V17.4h5.1c3.8,0,6.6,0.9,8.6,2.6s3,4.3,3,7.7c0,3.2-0.9,5.7-2.8,7.4c-1.9,1.7-4.6,2.6-8.2,2.6 H213.8z M215.9,36h3.7c2.9,0,5-0.7,6.5-2.1c1.5-1.4,2.2-3.5,2.2-6.2c0-5.7-3.1-8.5-9.3-8.5h-3.2V36H215.9z"></path> <path class="st0" d="M239.5,37.7V17.4h11.8v1.7h-9.7v7.2h9.1V28h-9.1v8h10.1v1.7H239.5z"></path> <path class="st0" d="M272.8,32.2c0,1.8-0.6,3.2-1.8,4.2c-1.2,1-2.8,1.5-4.8,1.5c-0.9,0-1.7-0.1-2.4-0.3c-0.8-0.2-1.4-0.4-2-0.7 c-0.5-0.3-1-0.5-1.3-0.7s-0.6-0.4-0.8-0.6l0.9-1.5c1.6,1.4,3.5,2,5.5,2c1.5,0,2.6-0.4,3.4-1.1c0.8-0.7,1.2-1.7,1.2-2.9 c0-0.7-0.1-1.3-0.3-1.8c-0.2-0.5-0.6-0.9-1.2-1.2c-0.6-0.3-1.5-0.7-2.6-1c0,0-0.2,0-0.4-0.1c-0.2-0.1-0.5-0.1-0.8-0.2 s-0.4-0.1-0.4-0.1c-0.9-0.3-1.7-0.5-2.3-0.8c-0.6-0.3-1.1-0.7-1.6-1.1s-0.8-0.9-1-1.5s-0.3-1.3-0.3-2.1c0-1.7,0.6-2.9,1.8-3.9 c1.2-0.9,2.8-1.4,4.8-1.4c0.7,0,1.4,0.1,2,0.2s1.1,0.2,1.5,0.4c0.4,0.1,0.8,0.3,1.1,0.5c0.4,0.2,0.6,0.4,0.8,0.5 c0.1,0.1,0.3,0.3,0.5,0.4l-1,1.4c-0.4-0.4-1.1-0.8-1.8-1.1c-0.8-0.3-1.8-0.5-2.9-0.5c-1.4,0-2.5,0.3-3.3,0.9s-1.2,1.5-1.2,2.6 s0.2,1.9,0.7,2.4s1.4,1,2.8,1.4c0,0,0.3,0.1,0.8,0.2s0.8,0.2,0.8,0.2c0.5,0.1,0.9,0.3,1.3,0.4s0.7,0.3,1.1,0.4 c0.3,0.1,0.6,0.3,0.9,0.4s0.5,0.3,0.7,0.5s0.4,0.3,0.6,0.5s0.3,0.4,0.5,0.6c0.1,0.2,0.2,0.4,0.3,0.6c0.1,0.2,0.2,0.5,0.2,0.7 c0.1,0.3,0.1,0.5,0.1,0.8C272.8,31.6,272.8,31.9,272.8,32.2z"></path> <path class="st0" d="M281.7,37.7V17.4h2.1v20.3C283.8,37.7,281.7,37.7,281.7,37.7z"></path> <path class="st0" d="M302.9,38c-3.2,0-5.7-0.9-7.5-2.7s-2.7-4.3-2.7-7.4c0-2.1,0.4-4,1.3-5.6s2.1-2.9,3.7-3.8s3.4-1.4,5.4-1.4 c2.6,0,4.8,0.7,6.6,2l-0.9,1.5c-1.8-1.2-3.7-1.8-5.7-1.8c-2.5,0-4.5,0.8-6,2.5s-2.3,3.8-2.3,6.5c0,2.6,0.7,4.6,2.1,6.2 s3.4,2.3,6,2.3c2.1,0,3.8-0.3,5.1-0.8V29h-5.4v-1.7h7.4v9.3C308.1,37.5,305.7,38,302.9,38z"></path> <path class="st0" d="M319.8,37.7V17.4h2.2l10.4,14.9l1.7,2.5V17.4h2v20.3h-2.2l-10.4-14.8l-1.7-2.6v17.3h-2V37.7z"></path> </g> </svg>